<svg width="22" height="11" viewBox="0 0 22 11" fill="none" xmlns="http://www.w3.org/2000/svg">
<g id="g20">
<path id="path22" d="M11.4157 9.53661C10.9906 9.50755 10.5003 9.43113 10.1136 9.31633C10.0412 9.2948 9.74127 9.18179 9.66498 9.14592C8.31876 8.5066 7.38093 7.11102 7.38093 5.49193C7.38093 3.27119 9.14322 1.46231 11.3107 1.46231C13.459 1.46231 15.2094 3.24034 15.2395 5.43596H16.6592C16.6291 2.43815 14.2422 0.00860977 11.3107 0.00860977C8.36181 0.00860977 5.96157 2.46792 5.96157 5.49193C5.96157 7.57669 7.10517 9.38988 8.77963 10.3162C9.08198 10.4802 9.51591 10.6491 9.66323 10.6954C10.1405 10.8411 10.7263 10.9379 11.2478 10.9785C11.4248 10.9921 12.0432 10.9993 12.2234 11H22V9.55024H12.2398C12.11 9.55024 11.5428 9.54522 11.4157 9.53661ZM12.2398 7.26027C12.1366 7.26027 11.5966 7.25668 11.4969 7.24807C11.3279 7.23336 11.0829 7.20753 10.9255 7.17058C10.7477 7.12178 10.5808 7.05721 10.5055 7.01487C9.97818 6.72248 9.61879 6.15061 9.61879 5.49193C9.61879 4.53367 10.3757 3.7566 11.3107 3.7566C12.2262 3.7566 12.9705 4.50318 13.0003 5.43596H14.3643C14.3356 3.73184 12.9807 2.3585 11.3107 2.3585C9.62229 2.3585 8.25367 3.76126 8.25367 5.49193C8.25367 6.71244 8.93606 7.76648 9.92988 8.28274C10.0828 8.37458 10.3705 8.47073 10.4523 8.49261C10.733 8.56831 11.1099 8.61997 11.4157 8.64293C11.5288 8.65262 12.0824 8.65693 12.1992 8.65764V8.6598H21.9996V7.26027H12.2398ZM5.08672 10.9946H3.65757V1.46554H1.56913V0H5.08672V10.9946ZM0 2.19778V3.60699H1.56913V10.9946H2.94229V2.19778H0Z" fill="url(#paint0_linear_199_44)"/>
</g>
<defs>
<linearGradient id="paint0_linear_199_44" x1="11" y1="-9.00182e-07" x2="11" y2="11" gradientUnits="userSpaceOnUse">
<stop stop-color="#B1B1B1"/>
<stop offset="1" stop-color="#72D34C"/>
</linearGradient>
</defs>
</svg>
