<svg width="24" height="24" viewBox="0 0 24 24" fill="none" xmlns="http://www.w3.org/2000/svg">
<g id="icons / assignment / domen controller">
<path id="Union" fill-rule="evenodd" clip-rule="evenodd" d="M5 4.5C5 3.67157 5.67157 3 6.5 3C7.32843 3 8 3.67157 8 4.5C8 5.32843 7.32843 6 6.5 6C5.67157 6 5 5.32843 5 4.5ZM6.5 2C5.11929 2 4 3.11929 4 4.5C4 5.70948 4.85888 6.71836 6 6.94999V17.05C4.85888 17.2816 4 18.2905 4 19.5C4 20.8807 5.11929 22 6.5 22C7.88071 22 9 20.8807 9 19.5C9 19.2725 8.96962 19.0522 8.91269 18.8427L17.5559 14.0409C17.9637 14.3301 18.462 14.5 19 14.5C20.3807 14.5 21.5 13.3807 21.5 12C21.5 10.6193 20.3807 9.5 19 9.5C18.462 9.5 17.9637 9.66993 17.5559 9.95905L8.91269 5.1573C8.96962 4.94785 9 4.72747 9 4.5C9 3.11929 7.88071 2 6.5 2ZM8.46127 6.05046C8.10199 6.50431 7.58854 6.83052 7 6.94999V17.05C7.58854 17.1695 8.10199 17.4957 8.46127 17.9495L16.8557 13.286C16.6299 12.9103 16.5 12.4703 16.5 12C16.5 11.5297 16.6299 11.0897 16.8557 10.714L8.46127 6.05046ZM5 19.5C5 18.6716 5.67157 18 6.5 18C7.32843 18 8 18.6716 8 19.5C8 20.3284 7.32843 21 6.5 21C5.67157 21 5 20.3284 5 19.5ZM19 10.5C18.1716 10.5 17.5 11.1716 17.5 12C17.5 12.8284 18.1716 13.5 19 13.5C19.8284 13.5 20.5 12.8284 20.5 12C20.5 11.1716 19.8284 10.5 19 10.5Z" fill="url(#paint0_linear_199_78)"/>
</g>
<defs>
<linearGradient id="paint0_linear_199_78" x1="12.75" y1="22" x2="12.75" y2="2" gradientUnits="userSpaceOnUse">
<stop stop-color="#B1B1B1"/>
<stop offset="1" stop-color="#72D34C"/>
</linearGradient>
</defs>
</svg>
