<svg width="24" height="24" viewBox="0 0 24 24" fill="none" xmlns="http://www.w3.org/2000/svg">
<g id="icons / assignment / hosting">
<path id="Union" d="M18.999 10.0998L18.4991 10.09L18.4909 10.507L18.8997 10.5898L18.999 10.0998ZM9.3026 8.28302L9.10493 8.74229L9.59062 8.95134L9.77219 8.45472L9.3026 8.28302ZM4.05344 12.1127L4.17134 12.5986L4.62742 12.4879L4.54583 12.0257L4.05344 12.1127ZM18.5 10C18.5 10.0301 18.4997 10.0601 18.4991 10.09L19.4989 10.1096C19.4996 10.0732 19.5 10.0366 19.5 10H18.5ZM14 5.5C16.4853 5.5 18.5 7.51472 18.5 10H19.5C19.5 6.96243 17.0376 4.5 14 4.5V5.5ZM9.77219 8.45472C10.4028 6.72988 12.0584 5.5 14 5.5V4.5C11.6252 4.5 9.60317 6.00484 8.833 8.11133L9.77219 8.45472ZM7.5 8.5C8.2 8.5 8.72515 8.57883 9.10493 8.74229L9.50027 7.82376C8.93748 7.58153 8.25377 7.5 7.5 7.5V8.5ZM4.5 11.5C4.5 9.84315 5.84315 8.5 7.5 8.5V7.5C5.29086 7.5 3.5 9.29086 3.5 11.5H4.5ZM4.54583 12.0257C4.51575 11.8554 4.5 11.6797 4.5 11.5H3.5C3.5 11.7383 3.52089 11.9721 3.56106 12.1996L4.54583 12.0257ZM1.5 16C1.5 14.353 2.63808 12.9706 4.17134 12.5986L3.93554 11.6268C1.96425 12.1051 0.5 13.8809 0.5 16H1.5ZM5 19.5C3.067 19.5 1.5 17.933 1.5 16H0.5C0.5 18.4853 2.51472 20.5 5 20.5V19.5ZM18 19.5H5V20.5H18V19.5ZM22.5 15C22.5 17.4853 20.4853 19.5 18 19.5V20.5C21.0376 20.5 23.5 18.0376 23.5 15H22.5ZM18.8997 10.5898C20.9539 11.0064 22.5 12.8232 22.5 15H23.5C23.5 12.3382 21.6096 10.119 19.0984 9.60979L18.8997 10.5898Z" fill="url(#paint0_linear_199_131)"/>
</g>
<defs>
<linearGradient id="paint0_linear_199_131" x1="12" y1="20" x2="12" y2="5" gradientUnits="userSpaceOnUse">
<stop stop-color="#B1B1B1"/>
<stop offset="1" stop-color="#72D34C"/>
</linearGradient>
</defs>
</svg>
