<svg width="24" height="24" viewBox="0 0 24 24" fill="none" xmlns="http://www.w3.org/2000/svg">
<g id="icons / assignment / office">
<path id="Union" fill-rule="evenodd" clip-rule="evenodd" d="M9 2C8.17157 2 7.5 2.67157 7.5 3.5V5H3C2.17157 5 1.5 5.67157 1.5 6.5V11.5C1.5 12.1531 1.9174 12.7087 2.5 12.9146V19.5C2.5 20.3284 3.17157 21 4 21H20C20.8284 21 21.5 20.3284 21.5 19.5V12.9146C22.0826 12.7087 22.5 12.1531 22.5 11.5V6.5C22.5 5.67157 21.8284 5 21 5H16.5V3.5C16.5 2.67157 15.8284 2 15 2H9ZM15.5 5V3.5C15.5 3.22386 15.2761 3 15 3H9C8.72386 3 8.5 3.22386 8.5 3.5V5H15.5ZM3.5 13H20.5V19.5C20.5 19.7761 20.2761 20 20 20H4C3.72386 20 3.5 19.7761 3.5 19.5V13ZM3 6C2.72386 6 2.5 6.22386 2.5 6.5V11.5C2.5 11.7761 2.72386 12 3 12H21C21.2761 12 21.5 11.7761 21.5 11.5V6.5C21.5 6.22386 21.2761 6 21 6H3Z" fill="url(#paint0_linear_199_49)"/>
</g>
<defs>
<linearGradient id="paint0_linear_199_49" x1="12" y1="21" x2="12" y2="2" gradientUnits="userSpaceOnUse">
<stop stop-color="#B1B1B1"/>
<stop offset="1" stop-color="#72D34C"/>
</linearGradient>
</defs>
</svg>
