<svg width="24" height="24" viewBox="0 0 24 24" fill="none" xmlns="http://www.w3.org/2000/svg">
<g id="icons / service / tooltip" clip-path="url(#clip0_3_3413)">
<circle id="Ellipse 82" cx="12" cy="12" r="11.5" stroke="#BDBDBD"/>
<path id="?" d="M11.2326 13.8857C11.2372 13.5306 11.2512 13.2396 11.2744 13.0128C11.2977 12.781 11.3465 12.5739 11.4209 12.3914C11.4953 12.2139 11.6023 12.0437 11.7419 11.881C11.8814 11.7133 12.0674 11.516 12.3 11.2892C12.4581 11.1166 12.6186 10.939 12.7814 10.7566C12.9488 10.5741 13.1023 10.3818 13.2419 10.1796C13.3767 9.98229 13.4884 9.7727 13.5767 9.55077C13.6651 9.32885 13.7093 9.0946 13.7093 8.84802C13.7093 8.59157 13.6744 8.36472 13.6047 8.16745C13.5395 7.96525 13.4419 7.79511 13.3116 7.65703C13.1674 7.50415 12.986 7.38825 12.7674 7.30935C12.5488 7.23044 12.2977 7.19099 12.014 7.19099C11.7953 7.19099 11.5814 7.22058 11.3721 7.27976C11.1674 7.33401 10.986 7.42031 10.8279 7.53867C10.6651 7.66196 10.5349 7.81731 10.4372 8.00471C10.3395 8.18718 10.2907 8.40664 10.2907 8.66308H9C9.00465 8.24882 9.08605 7.87649 9.24419 7.54607C9.40233 7.21565 9.61628 6.93454 9.88605 6.70276C10.1512 6.4759 10.4651 6.3033 10.8279 6.18494C11.1953 6.06165 11.5907 6 12.014 6C12.4837 6 12.9023 6.06411 13.2698 6.19233C13.6419 6.31562 13.9558 6.49809 14.2116 6.73974C14.4674 6.98139 14.6628 7.27483 14.7977 7.62004C14.9326 7.96525 15 8.35978 15 8.80363C15 9.15871 14.9419 9.49406 14.8256 9.80968C14.7093 10.1204 14.5605 10.4138 14.3791 10.69C14.1977 10.9711 13.993 11.2325 13.7651 11.4741C13.5419 11.7158 13.3209 11.9401 13.1023 12.1473C12.9628 12.2903 12.8535 12.4259 12.7744 12.5541C12.7 12.6824 12.6442 12.813 12.607 12.9462C12.5698 13.0794 12.5465 13.2224 12.5372 13.3753C12.5279 13.5232 12.5233 13.6933 12.5233 13.8857H11.2326ZM11.086 16.2011C11.086 15.9644 11.1512 15.7671 11.2814 15.6093C11.4163 15.4515 11.6163 15.3726 11.8814 15.3726C12.1465 15.3726 12.3465 15.4515 12.4814 15.6093C12.6209 15.7671 12.6907 15.9644 12.6907 16.2011C12.6907 16.4279 12.6209 16.6178 12.4814 16.7707C12.3465 16.9236 12.1465 17 11.8814 17C11.6163 17 11.4163 16.9236 11.2814 16.7707C11.1512 16.6178 11.086 16.4279 11.086 16.2011Z" fill="#BDBDBD"/>
</g>
<defs>
<clipPath id="clip0_3_3413">
<rect width="24" height="24" fill="white"/>
</clipPath>
</defs>
</svg>
