<svg width="24" height="24" viewBox="0 0 24 24" fill="none" xmlns="http://www.w3.org/2000/svg">
<g id="icons / assignment / virtualization" clip-path="url(#clip0_199_25)">
<path id="Union" fill-rule="evenodd" clip-rule="evenodd" d="M6 0.5C6.27614 0.5 6.5 0.723858 6.5 1C6.5 1.27614 6.27614 1.5 6 1.5H1.5V6C1.5 6.27614 1.27614 6.5 1 6.5C0.723857 6.5 0.5 6.27614 0.5 6V1C0.5 0.723858 0.723857 0.5 1 0.5H6ZM17.5 1C17.5 0.723858 17.7239 0.5 18 0.5H23C23.2761 0.5 23.5 0.723858 23.5 1V6C23.5 6.27614 23.2761 6.5 23 6.5C22.7239 6.5 22.5 6.27614 22.5 6V1.5H18C17.7239 1.5 17.5 1.27614 17.5 1ZM11.8811 5.51435C11.9592 5.49522 12.0408 5.49522 12.1189 5.51435L19.1189 7.22864C19.3427 7.28343 19.5 7.48396 19.5 7.71429V15.764C19.5 15.9815 19.3594 16.1741 19.1521 16.2403L12.1521 18.4763C12.0532 18.5079 11.9468 18.5079 11.8479 18.4763L4.84786 16.2403C4.64064 16.1741 4.5 15.9815 4.5 15.764V7.71429C4.5 7.48396 4.65735 7.28343 4.88107 7.22864L11.8811 5.51435ZM5.5 8.35813V15.3988L11.5 17.3154V9.8914L5.5 8.35813ZM12.5 9.8914V17.3154L18.5 15.3988V8.35813L12.5 9.8914ZM16.9401 7.72461L12 6.51478L7.05986 7.72461L12 8.98704L16.9401 7.72461ZM17.5 23C17.5 23.2761 17.7239 23.5 18 23.5H23C23.2761 23.5 23.5 23.2761 23.5 23V18C23.5 17.7239 23.2761 17.5 23 17.5C22.7239 17.5 22.5 17.7239 22.5 18V22.5H18C17.7239 22.5 17.5 22.7239 17.5 23ZM6 23.5C6.27614 23.5 6.5 23.2761 6.5 23C6.5 22.7239 6.27614 22.5 6 22.5H1.5V18C1.5 17.7239 1.27614 17.5 1 17.5C0.723857 17.5 0.5 17.7239 0.5 18V23C0.5 23.2761 0.723857 23.5 1 23.5H6Z" fill="url(#paint0_linear_199_25)"/>
</g>
<defs>
<linearGradient id="paint0_linear_199_25" x1="12" y1="23.5" x2="12" y2="0.500002" gradientUnits="userSpaceOnUse">
<stop stop-color="#B1B1B1"/>
<stop offset="1" stop-color="#72D34C"/>
</linearGradient>
<clipPath id="clip0_199_25">
<rect width="24" height="24" fill="white"/>
</clipPath>
</defs>
</svg>
